<svg width="1440" height="541" viewBox="0 0 1440 541" fill="none" xmlns="http://www.w3.org/2000/svg">
<path d="M207 103.5C207 89.9082 204.323 76.4495 199.122 63.8923C193.92 51.3351 186.296 39.9253 176.686 30.3144C167.075 20.7036 155.665 13.0798 143.108 7.87847C130.551 2.67711 117.092 -5.94117e-07 103.5 0C89.9082 5.94117e-07 76.4495 2.67711 63.8923 7.87847C51.3351 13.0798 39.9253 20.7036 30.3144 30.3145C20.7036 39.9253 13.0798 51.3351 7.87847 63.8923C2.6771 76.4495 -1.18823e-06 89.9082 0 103.5L103.5 103.5L207 103.5Z" fill="#B5BDFF"/>
<path d="M414 103.5C414 89.9082 411.323 76.4495 406.122 63.8923C400.92 51.3351 393.296 39.9253 383.686 30.3144C374.075 20.7036 362.665 13.0798 350.108 7.87847C337.551 2.67711 324.092 -5.94117e-07 310.5 0C296.908 5.94117e-07 283.449 2.67711 270.892 7.87847C258.335 13.0798 246.925 20.7036 237.314 30.3145C227.704 39.9253 220.08 51.3351 214.878 63.8923C209.677 76.4495 207 89.9082 207 103.5L310.5 103.5L414 103.5Z" fill="#B5BDFF"/>
<path d="M621 103.5C621 89.9082 618.323 76.4495 613.122 63.8923C607.92 51.3351 600.296 39.9253 590.686 30.3144C581.075 20.7036 569.665 13.0798 557.108 7.87847C544.551 2.67711 531.092 -5.94117e-07 517.5 0C503.908 5.94117e-07 490.449 2.67711 477.892 7.87847C465.335 13.0798 453.925 20.7036 444.314 30.3145C434.704 39.9253 427.08 51.3351 421.878 63.8923C416.677 76.4495 414 89.9082 414 103.5L517.5 103.5L621 103.5Z" fill="#B5BDFF"/>
<path d="M828 103.5C828 89.9082 825.323 76.4495 820.122 63.8923C814.92 51.3351 807.296 39.9253 797.686 30.3144C788.075 20.7036 776.665 13.0798 764.108 7.87847C751.551 2.67711 738.092 -5.94117e-07 724.5 0C710.908 5.94117e-07 697.449 2.67711 684.892 7.87847C672.335 13.0798 660.925 20.7036 651.314 30.3145C641.704 39.9253 634.08 51.3351 628.878 63.8923C623.677 76.4495 621 89.9082 621 103.5L724.5 103.5L828 103.5Z" fill="#B5BDFF"/>
<path d="M1035 103.5C1035 89.9082 1032.32 76.4495 1027.12 63.8923C1021.92 51.3351 1014.3 39.9253 1004.69 30.3144C995.075 20.7036 983.665 13.0798 971.108 7.87847C958.551 2.67711 945.092 -5.94117e-07 931.5 0C917.908 5.94117e-07 904.449 2.67711 891.892 7.87847C879.335 13.0798 867.925 20.7036 858.314 30.3145C848.704 39.9253 841.08 51.3351 835.878 63.8923C830.677 76.4495 828 89.9082 828 103.5L931.5 103.5L1035 103.5Z" fill="#B5BDFF"/>
<path d="M1242 103.5C1242 89.9082 1239.32 76.4495 1234.12 63.8923C1228.92 51.3351 1221.3 39.9253 1211.69 30.3144C1202.07 20.7036 1190.66 13.0798 1178.11 7.87847C1165.55 2.67711 1152.09 -5.94117e-07 1138.5 0C1124.91 5.94117e-07 1111.45 2.67711 1098.89 7.87847C1086.34 13.0798 1074.93 20.7036 1065.31 30.3145C1055.7 39.9253 1048.08 51.3351 1042.88 63.8923C1037.68 76.4495 1035 89.9082 1035 103.5L1138.5 103.5L1242 103.5Z" fill="#B5BDFF"/>
<path d="M1449 103.5C1449 89.9082 1446.32 76.4495 1441.12 63.8923C1435.92 51.3351 1428.3 39.9253 1418.69 30.3144C1409.07 20.7036 1397.66 13.0798 1385.11 7.87847C1372.55 2.67711 1359.09 -5.94117e-07 1345.5 0C1331.91 5.94117e-07 1318.45 2.67711 1305.89 7.87847C1293.34 13.0798 1281.93 20.7036 1272.31 30.3145C1262.7 39.9253 1255.08 51.3351 1249.88 63.8923C1244.68 76.4495 1242 89.9082 1242 103.5L1345.5 103.5L1449 103.5Z" fill="#B5BDFF"/>
<rect width="1440" height="438" transform="translate(0 103)" fill="#B5BDFF"/>
<rect x="249" y="148" width="942" height="348" rx="45" fill="white"/>
<path d="M1376.22 379.623C1371.58 359.915 1393.55 344.763 1410.32 356.106L1416.84 360.517C1425.46 366.343 1436.96 365.42 1444.54 358.293L1450.27 352.898C1465.02 339.024 1489.12 350.475 1487.69 370.672L1487.13 378.525C1486.39 388.899 1492.94 398.4 1502.9 401.396L1510.44 403.665C1529.83 409.499 1531.96 436.102 1513.76 444.956L1506.67 448.398C1497.32 452.946 1492.37 463.37 1494.75 473.494L1496.56 481.157C1501.2 500.866 1479.23 516.017 1462.46 504.674L1455.94 500.263C1447.32 494.437 1435.82 495.36 1428.24 502.487L1422.51 507.882C1407.76 521.756 1383.65 510.305 1385.09 490.108L1385.65 482.255C1386.39 471.881 1379.84 462.38 1369.88 459.384L1362.34 457.115C1342.95 451.281 1340.81 424.678 1359.02 415.824L1366.1 412.382C1375.46 407.834 1380.41 397.41 1378.02 387.286L1376.22 379.623Z" fill="white"/>
<path d="M1303.24 393.723C1301.96 388.259 1308.05 384.059 1312.7 387.204C1315.09 388.819 1318.28 388.563 1320.38 386.587C1324.46 382.741 1331.15 385.915 1330.75 391.514C1330.54 394.39 1332.36 397.024 1335.12 397.855C1340.5 399.472 1341.09 406.847 1336.04 409.302C1333.45 410.562 1332.07 413.452 1332.74 416.259C1334.02 421.723 1327.93 425.923 1323.28 422.778C1320.89 421.163 1317.7 421.419 1315.6 423.395C1311.52 427.241 1304.83 424.067 1305.23 418.467C1305.44 415.591 1303.62 412.958 1300.86 412.127C1295.48 410.509 1294.89 403.135 1299.94 400.68C1302.53 399.419 1303.91 396.53 1303.24 393.723Z" fill="white"/>
<path d="M-57.7804 194.623C-62.4222 174.915 -40.4519 159.763 -23.6795 171.106L-17.1579 175.517C-8.54264 181.343 2.9605 180.42 10.5356 173.293L16.2697 167.898C31.0171 154.024 55.1237 165.475 53.6864 185.672L53.1276 193.525C52.3893 203.899 58.9409 213.4 68.9003 216.396L76.4393 218.665C95.8285 224.499 97.9647 251.102 79.7551 259.956L72.6747 263.398C63.3212 267.946 58.3696 278.37 60.7539 288.494L62.5588 296.157C67.2006 315.866 45.2303 331.017 28.4579 319.674L21.9363 315.263C13.3211 309.437 1.81791 310.36 -5.75719 317.487L-11.4913 322.882C-26.2387 336.756 -50.3452 325.305 -48.908 305.108L-48.3492 297.255C-47.6109 286.881 -54.1625 277.38 -64.1219 274.384L-71.6609 272.115C-91.0501 266.281 -93.1863 239.678 -74.9767 230.824L-67.8963 227.382C-58.5428 222.834 -53.5912 212.41 -55.9755 202.286L-57.7804 194.623Z" fill="white"/>
<path d="M222.364 388.973C221.51 375.314 235.507 365.661 247.971 371.313L269.959 381.284C272.662 382.51 275.624 383.054 278.586 382.869L302.682 381.363C316.341 380.509 325.994 394.506 320.342 406.97L310.37 428.958C309.144 431.661 308.6 434.623 308.785 437.585L310.291 461.682C311.145 475.341 297.148 484.993 284.684 479.341L262.696 469.37C259.993 468.144 257.031 467.6 254.069 467.785L229.973 469.291C216.314 470.145 206.661 456.148 212.313 443.684L222.285 421.696C223.511 418.993 224.055 416.031 223.87 413.069L222.364 388.973Z" fill="#FFB1EE"/>
<path d="M1185.6 172.923C1189.36 165.236 1200.58 166.084 1203.14 174.249C1204.74 179.332 1210.21 182.099 1215.25 180.371C1223.34 177.594 1230.68 186.127 1226.72 193.712C1224.25 198.434 1226.16 204.26 1230.95 206.601C1238.63 210.362 1237.79 221.58 1229.62 224.142C1224.54 225.738 1221.77 231.21 1223.5 236.25C1226.28 244.344 1217.74 251.677 1210.16 247.716C1205.44 245.249 1199.61 247.162 1197.27 251.948C1193.51 259.634 1182.29 258.786 1179.73 250.622C1178.13 245.539 1172.66 242.772 1167.62 244.5C1159.53 247.276 1152.19 238.744 1156.16 231.159C1158.62 226.437 1156.71 220.611 1151.92 218.269C1144.24 214.509 1145.08 203.291 1153.25 200.728C1158.33 199.133 1161.1 193.66 1159.37 188.621C1156.59 180.527 1165.13 173.194 1172.71 177.155C1177.43 179.621 1183.26 177.708 1185.6 172.923Z" fill="#FFE0F8"/>
</svg>
