<svg width="1440" height="1083" viewBox="0 0 1440 1083" fill="none" xmlns="http://www.w3.org/2000/svg">
<rect width="1441" height="979" fill="#DFEBFF"/>
<path d="M1138.04 492.913C1142 479.81 1158.48 475.631 1168.19 485.267L1192 508.873C1194.11 510.963 1196.7 512.504 1199.54 513.361L1231.64 523.043C1244.74 526.996 1248.92 543.477 1239.28 553.195L1215.67 577.002C1213.59 579.11 1212.04 581.697 1211.19 584.539L1201.5 616.636C1197.55 629.739 1181.07 633.918 1171.35 624.281L1147.55 600.676C1145.44 598.586 1142.85 597.045 1140.01 596.188L1107.91 586.505C1094.81 582.553 1090.63 566.072 1100.27 556.353L1123.87 532.547C1125.96 530.439 1127.5 527.851 1128.36 525.01L1138.04 492.913Z" fill="#B5BDFF"/>
<path d="M203 979.5C203 965.908 200.323 952.449 195.122 939.892C189.92 927.335 182.296 915.925 172.686 906.314C163.075 896.704 151.665 889.08 139.108 883.878C126.551 878.677 113.092 876 99.5 876C85.9082 876 72.4495 878.677 59.8923 883.878C47.3351 889.08 35.9253 896.704 26.3144 906.314C16.7036 915.925 9.07983 927.335 3.87847 939.892C-1.3229 952.449 -4 965.908 -4 979.5L99.5 979.5H203Z" fill="white"/>
<path d="M410 979.5C410 965.908 407.323 952.449 402.122 939.892C396.92 927.335 389.296 915.925 379.686 906.314C370.075 896.704 358.665 889.08 346.108 883.878C333.551 878.677 320.092 876 306.5 876C292.908 876 279.449 878.677 266.892 883.878C254.335 889.08 242.925 896.704 233.314 906.314C223.704 915.925 216.08 927.335 210.878 939.892C205.677 952.449 203 965.908 203 979.5L306.5 979.5H410Z" fill="white"/>
<path d="M617 979.5C617 965.908 614.323 952.449 609.122 939.892C603.92 927.335 596.296 915.925 586.686 906.314C577.075 896.704 565.665 889.08 553.108 883.878C540.551 878.677 527.092 876 513.5 876C499.908 876 486.449 878.677 473.892 883.878C461.335 889.08 449.925 896.704 440.314 906.314C430.704 915.925 423.08 927.335 417.878 939.892C412.677 952.449 410 965.908 410 979.5L513.5 979.5H617Z" fill="white"/>
<path d="M824 979.5C824 965.908 821.323 952.449 816.122 939.892C810.92 927.335 803.296 915.925 793.686 906.314C784.075 896.704 772.665 889.08 760.108 883.878C747.551 878.677 734.092 876 720.5 876C706.908 876 693.449 878.677 680.892 883.878C668.335 889.08 656.925 896.704 647.314 906.314C637.704 915.925 630.08 927.335 624.878 939.892C619.677 952.449 617 965.908 617 979.5L720.5 979.5H824Z" fill="white"/>
<path d="M1031 979.5C1031 965.908 1028.32 952.449 1023.12 939.892C1017.92 927.335 1010.3 915.925 1000.69 906.314C991.075 896.704 979.665 889.08 967.108 883.878C954.551 878.677 941.092 876 927.5 876C913.908 876 900.449 878.677 887.892 883.878C875.335 889.08 863.925 896.704 854.314 906.314C844.704 915.925 837.08 927.335 831.878 939.892C826.677 952.449 824 965.908 824 979.5L927.5 979.5H1031Z" fill="white"/>
<path d="M1238 979.5C1238 965.908 1235.32 952.449 1230.12 939.892C1224.92 927.335 1217.3 915.925 1207.69 906.314C1198.07 896.704 1186.66 889.08 1174.11 883.878C1161.55 878.677 1148.09 876 1134.5 876C1120.91 876 1107.45 878.677 1094.89 883.878C1082.34 889.08 1070.93 896.704 1061.31 906.314C1051.7 915.925 1044.08 927.335 1038.88 939.892C1033.68 952.449 1031 965.908 1031 979.5L1134.5 979.5H1238Z" fill="white"/>
<path d="M1445 979.5C1445 965.908 1442.32 952.449 1437.12 939.892C1431.92 927.335 1424.3 915.925 1414.69 906.314C1405.07 896.704 1393.66 889.08 1381.11 883.878C1368.55 878.677 1355.09 876 1341.5 876C1327.91 876 1314.45 878.677 1301.89 883.878C1289.34 889.08 1277.93 896.704 1268.31 906.314C1258.7 915.925 1251.08 927.335 1245.88 939.892C1240.68 952.449 1238 965.908 1238 979.5L1341.5 979.5H1445Z" fill="white"/>
</svg>
