<svg width="126" height="137" viewBox="0 0 126 137" fill="none" xmlns="http://www.w3.org/2000/svg">
<path d="M30.2196 2.62324C25.5778 -17.0855 47.5481 -32.2368 64.3205 -20.8937L70.8421 -16.4832C79.4574 -10.6567 90.9605 -11.5804 98.5356 -18.7071L104.27 -24.1017C119.017 -37.976 143.124 -26.5249 141.686 -6.32794L141.128 1.52512C140.389 11.8994 146.941 21.3996 156.9 24.3965L164.439 26.665C183.828 32.4995 185.965 59.102 167.755 67.9557L160.675 71.3983C151.321 75.9461 146.37 86.37 148.754 96.4936L150.559 104.157C155.201 123.866 133.23 139.017 116.458 127.674L109.936 123.263C101.321 117.437 89.8179 118.36 82.2428 125.487L76.5087 130.882C61.7613 144.756 37.6548 133.305 39.092 113.108L39.6508 105.255C40.3891 94.8806 33.8375 85.3805 23.8781 82.3836L16.3391 80.115C-3.05007 74.2805 -5.18634 47.6781 13.0233 38.8243L20.1037 35.3817C29.4572 30.8339 34.4088 20.41 32.0245 10.2865L30.2196 2.62324Z" fill="#B5BDFF"/>
</svg>
