<svg width="126" height="89" viewBox="0 0 126 89" fill="none" xmlns="http://www.w3.org/2000/svg">
<path d="M43.0426 -48.0874C46.9952 -61.1899 63.4763 -65.3689 73.1945 -55.7328L97.0014 -32.127C99.1088 -30.0374 101.697 -28.4965 104.538 -27.6394L136.635 -17.9567C149.738 -14.0041 153.917 2.477 144.281 12.1952L120.675 36.0021C118.585 38.1095 117.044 40.6973 116.187 43.5386L106.505 75.6361C102.552 88.7386 86.0709 92.9176 76.3527 83.2814L52.5458 59.6756C50.4384 57.586 47.8507 56.0451 45.0093 55.188L12.9119 45.5053C-0.190617 41.5528 -4.36962 25.0716 5.2665 15.3534L28.8723 -8.45347C30.9619 -10.5609 32.5028 -13.1487 33.3599 -15.99L43.0426 -48.0874Z" fill="#FFB1EE"/>
</svg>
